<svg xmlns="http://www.w3.org/2000/svg" version="1.1" xmlns:xlink="http://www.w3.org/1999/xlink" xmlns:svgjs="http://svgjs.dev/svgjs" viewBox="0 0 800 800" opacity="0.36"><g stroke-width="5" stroke="#00A973" fill="none">
<path d="M313.78241898337455 -843.4894584314984C367.13382034790766 -874.2863565688792 432.86605758177984 -874.2863565688792 486.21745894631295 -843.4808366795002L1433.7824905506518 -296.404807141084C1487.133891915185 -265.6079090037032 1520.000010532121 -208.6784805599391 1520.000010532121 -147.07606253317897V947.0759965436537C1520.000010532121 1008.6784145704132 1487.133891915185 1065.6078430141774 1433.7824905506518 1096.4133629035564L486.21745894631295 1643.4893924419725C432.86605758177984 1674.2862905793536 367.13382034790766 1674.2862905793536 313.78241898337455 1643.4807706899746L-633.7826126209643 1096.4047411515585C-687.1340139854974 1065.6078430141774 -720.0001326024335 1008.6784145704132 -720.0001326024335 947.0759965436537V-147.07606253317897C-720.0001326024335 -208.6784805599391 -687.1340139854974 -265.6079090037032 -633.7826126209643 -296.413428893082L313.78241898337455 -843.4894584314984Z " transform="rotate(128, 400, 400)" opacity="0.60"></path><path d="M316.4767164827954 -804.6304300216518C368.16088655468684 -834.4649250922394 431.83899137500066 -834.4649250922394 483.5231614468921 -804.6220776994035L1401.4767858135951 -274.64217408406284C1453.160955885487 -244.8076790134752 1485.0000082956435 -189.6572952085786 1485.0000082956435 -129.97995274515483V929.9798544855266C1485.0000082956435 989.6571969489501 1453.160955885487 1044.807580753847 1401.4767858135951 1074.6504281466823L483.5231614468921 1604.6303317620232C431.83899137500066 1634.4648268326105 368.16088655468684 1634.4648268326105 316.4767164827954 1604.6219794397753L-601.4769078839079 1074.6420758244344C-653.1610779557992 1044.807580753847 -685.0001303659561 989.6571969489501 -685.0001303659561 929.9798544855266V-129.97995274515483C-685.0001303659561 -189.6572952085786 -653.1610779557992 -244.8076790134752 -601.4769078839079 -274.65052640631086L316.4767164827954 -804.6304300216518Z " transform="rotate(124, 400, 400)" opacity="0.76"></path><path d="M319.17101398221644 -765.771386353016C369.187952761466 -794.6434783568105 430.81192516822125 -794.6434783568105 480.82886394747106 -765.7633034605178L1369.171081076539 -252.87952576825262C1419.1880198557883 -224.00743376445814 1450.0000060591665 -170.63609459842917 1450.0000060591665 -112.88382769834163V912.8837276861886C1450.0000060591665 970.6359945862762 1419.1880198557883 1024.0073337523054 1369.171081076539 1052.8875086485978L480.82886394747106 1565.7712863408628C430.81192516822125 1594.6433783446573 369.187952761466 1594.6433783446573 319.17101398221644 1565.7632034483645L-569.1712031468513 1052.8794257560994C-619.188141926101 1024.0073337523054 -650.0001281294788 970.6359945862762 -650.0001281294788 912.8837276861886V-112.88382769834163C-650.0001281294788 -170.63609459842917 -619.188141926101 -224.00743376445814 -569.1712031468513 -252.88760866075063L319.17101398221644 -765.771386353016Z " transform="rotate(120, 400, 400)" opacity="0.17"></path><path d="M321.86531148163726 -726.9123274255912C370.21501896824543 -754.8220163625926 429.7848589614423 -754.8220163625926 478.13456644805024 -726.9045139628429L1336.8653763394823 -231.11686219365322C1385.2150838260904 -203.2071732566518 1415.000003822689 -151.61487872949056 1415.000003822689 -95.78768739273926V895.7876161456402C1415.000003822689 951.6148074823916 1385.2150838260904 1003.2071020095527 1336.8653763394823 1031.1246044093023L478.13456644805024 1526.9122561784916C429.7848589614423 1554.8219451154932 370.21501896824543 1554.8219451154932 321.86531148163726 1526.9044427157437L-536.8654984097948 1031.1167909465541C-585.215205896403 1003.2071020095527 -615.0001258930013 951.6148074823916 -615.0001258930013 895.7876161456402V-95.78768739273926C-615.0001258930013 -151.61487872949056 -585.215205896403 -203.2071732566518 -536.8654984097948 -231.12467565640134L321.86531148163726 -726.9123274255912Z " transform="rotate(116, 400, 400)" opacity="0.84"></path><path d="M324.5596089810583 -688.0532990157446C371.2420851750246 -715.0005848859529 428.7577927546629 -715.0005848859529 475.4402689486292 -688.0457549827463L1304.5596716024256 -209.35422913663206C1351.2421477963921 -182.40694326642392 1380.0000015862115 -132.59369337813018 1380.0000015862115 -78.69157760471523V878.6914740875134C1380.0000015862115 932.5935898609282 1351.2421477963921 982.406839749222 1304.5596716024256 1009.3616696524284L475.4402689486292 1488.0531954985427C428.7577927546629 1515.0004813687506 371.2420851750246 1515.0004813687506 324.5596089810583 1488.0456514655443L-504.55979367273835 1009.3541256194301C-551.2422698667048 982.406839749222 -580.0001236565239 932.5935898609282 -580.0001236565239 878.6914740875134V-78.69157760471523C-580.0001236565239 -132.59369337813018 -551.2422698667048 -182.40694326642392 -504.55979367273835 -209.36177316963028L324.5596089810583 -688.0532990157446Z " transform="rotate(112, 400, 400)" opacity="0.12"></path><path d="M327.25402855079165 -649.194255347109C372.2692734521165 -675.1791381505241 427.730848618196 -675.1791381505241 472.74609351952085 -649.1869807438604L1272.254088935682 -187.59158082082195C1317.2693338370063 -161.60669801740676 1345.0001214200465 -113.57249276798075 1345.0001214200465 -61.59545255790192V861.5953472881754C1345.0001214200465 913.5723874982541 1317.2693338370063 961.6065927476802 1272.254088935682 987.5987501543434L472.74609351952085 1449.1941500773823C427.730848618196 1475.1790328807974 372.2692734521165 1475.1790328807974 327.25402855079165 1449.1868754741336L-472.25396686536936 987.5914755510953C-517.2692117666941 961.6065927476802 -544.999999349734 913.5723874982541 -544.999999349734 861.5953472881754V-61.59545255790192C-544.999999349734 -113.57249276798075 -517.2692117666941 -161.60669801740676 -472.25396686536936 -187.59885542407005L327.25402855079165 -649.194255347109Z " transform="rotate(108, 400, 400)" opacity="0.95"></path><path d="M329.9483260502125 -610.3352116784733C373.2963396588957 -635.3576914150951 426.7037824114168 -635.3576914150951 470.0517960201 -610.3282065049748L1239.9483841986253 -165.8289325050116C1283.2963978073085 -140.80645276838982 1310.000119183569 -94.55129215783131 1310.000119183569 -44.499327511088836V844.4992204888374C1310.000119183569 894.55118513558 1283.2963978073085 940.8063457461383 1239.9483841986253 965.8358306562586L470.0517960201 1410.335104656222C426.7037824114168 1435.3575843928434 373.2963396588957 1435.3575843928434 329.9483260502125 1410.3280994827232L-439.9482621283128 965.8288254827603C-483.29627573699594 940.8063457461383 -509.99999711325654 894.55118513558 -509.99999711325654 844.4992204888374V-44.499327511088836C-509.99999711325654 -94.55129215783131 -483.29627573699594 -140.80645276838982 -439.9482621283128 -165.83593767850994L329.9483260502125 -610.3352116784733Z " transform="rotate(104, 400, 400)" opacity="0.66"></path><path d="M332.64256251447705 -571.4761069746813C374.32334483051864 -595.5361836445102 425.67665516948136 -595.5361836445102 467.35743748552295 -571.4693712309328L1207.6426184264126 -144.06622315404513C1249.3234007424542 -120.00614648421629 1275.0000559119353 -75.53003051252563 1275.0000559119353 -27.403141429119273V827.4031547246561C1275.0000559119353 875.5300438080624 1249.3234007424542 920.006159779753 1207.6426184264126 944.0729721933301L467.35743748552295 1371.476120270218C425.67665516948136 1395.5361969400465 374.32334483051864 1395.5361969400465 332.64256251447705 1371.4693845264692L-407.6426184264126 944.0662364495818C-449.323400742454 920.006159779753 -475.00005591193536 875.5300438080624 -475.00005591193536 827.4031547246561V-27.403141429119273C-475.00005591193536 -75.53003051252563 -449.323400742454 -120.00614648421629 -407.6426184264126 -144.07295889779357L332.64256251447705 -571.4761069746813Z " transform="rotate(100, 400, 400)" opacity="0.74"></path><path d="M335.3368600138981 -532.6170633060457C375.3504110372978 -555.7147369090812 424.6495889627022 -555.7147369090812 464.6631399861019 -532.610596992047L1175.336913689356 -122.30357483823491C1215.3504647127559 -99.20590123519924 1240.0000536754578 -56.50882990237619 1240.0000536754578 -10.307016382306188V810.3070279253182C1240.0000536754578 856.5088414453883 1215.3504647127559 899.2059127782113 1175.336913689356 922.3100526952453L464.6631399861019 1332.6170748490576C424.6495889627022 1355.7147484520929 375.3504110372978 1355.7147484520929 335.3368600138981 1332.6106085350589L-375.3369136893561 922.303586381247C-415.35046471275587 899.2059127782113 -440.000053675458 856.5088414453883 -440.000053675458 810.3070279253182V-10.307016382306188C-440.000053675458 -56.50882990237619 -415.35046471275587 -99.20590123519924 -375.3369136893561 -122.31004115223334L335.3368600138981 -532.6170633060457Z " transform="rotate(96, 400, 400)" opacity="0.50"></path><path d="M338.03115751331904 -493.75801963741C376.3774772440772 -515.8932901736524 423.6225227559228 -515.8932901736524 461.96884248668084 -493.75182275316126L1143.0312089522997 -100.54092652242457C1181.3775286830578 -78.40565598618218 1205.0000514389806 -37.48762929222676 1205.0000514389806 6.7891086645071255V793.2109011259804C1205.0000514389806 837.4876390827142 1181.3775286830578 878.4056657766696 1143.0312089522997 900.5471331971605L461.96884248668084 1293.7580294278969C423.6225227559228 1315.8932999641397 376.3774772440772 1315.8932999641397 338.03115751331904 1293.7518325436486L-343.0312089522996 900.5409363129122C-381.3775286830577 878.4056657766696 -405.00005143898056 837.4876390827142 -405.00005143898056 793.2109011259804V6.7891086645071255C-405.00005143898056 -37.48762929222676 -381.3775286830577 -78.40565598618218 -343.0312089522996 -100.54712340667311L338.03115751331904 -493.75801963741Z " transform="rotate(92, 400, 400)" opacity="0.46"></path><path d="M340.72545501274 -454.89899122756333C377.4045434508564 -476.07185869701266 422.5954565491436 -476.07185869701266 459.27454498726 -454.89306377306457L1110.725504215243 -78.77829346540352C1147.4045926533595 -57.60542599595419 1170.000049202503 -18.46644394086627 1170.000049202503 23.885218452531262V776.1147590678536C1170.000049202503 818.466421461251 1147.4045926533595 857.6054035163388 1110.725504215243 878.7841984402869L459.27454498726 1254.898968747948C422.5954565491436 1276.0718362173973 377.4045434508564 1276.0718362173973 340.72545501274 1254.8930412934492L-310.72550421524306 878.7782709857881C-347.40459265335954 857.6054035163388 -370.00004920250313 818.466421461251 -370.00004920250313 776.1147590678536V23.885218452531262C-370.00004920250313 -18.46644394086627 -347.40459265335954 -57.60542599595419 -310.72550421524306 -78.78422091990205L340.72545501274 -454.89899122756333Z " transform="rotate(88, 400, 400)" opacity="0.30"></path><path d="M343.4197525121608 -416.03993230013856C378.4316096576357 -436.2503967027948 421.5683903423642 -436.2503967027948 456.5802474878392 -416.03427427538975L1078.4197994781866 -57.01562989080412C1113.4316566236614 -36.80516548814808 1135.0000469660258 0.5547719280723413 1135.0000469660258 40.981358758133524V759.0186475273047C1135.0000469660258 799.445234357366 1113.4316566236614 836.8051717735864 1078.4197994781866 857.0212942009912L456.5802474878392 1216.0399385855767C421.5683903423642 1236.250402988233 378.4316096576357 1236.250402988233 343.4197525121608 1216.0342805608282L-278.4197994781866 857.0156361762424C-313.43165662366135 836.8051717735864 -335.0000469660257 799.445234357366 -335.0000469660257 759.0186475273047V40.981358758133524C-335.0000469660257 0.5547719280723413 -313.43165662366135 -36.80516548814808 -278.4197994781866 -57.021287915552875L343.4197525121608 -416.03993230013856Z " transform="rotate(84, 400, 400)" opacity="0.39"></path><path d="M346.1140194940036 -377.1808886315029C379.45864534683676 -396.4289499673659 420.541293618007 -396.4289499673659 453.8859194708401 -377.17550003650405L1046.1140642235518 -35.252981574993896C1079.4586900763852 -16.00492023913091 1100.0000142119702 19.575972538221777 1100.0000142119702 58.07748380494672V741.9225207279669C1100.0000142119702 780.4240319946919 1079.4586900763852 816.0049247720447 1046.1140642235518 835.2583747029064L453.8859194708401 1177.1808931644164C420.541293618007 1196.4289545002794 379.45864534683676 1196.4289545002794 346.1140194940036 1177.1755045694176L-246.1141252587082 835.2529861079074C-279.45875111154135 816.0049247720447 -300.00007524712646 780.4240319946919 -300.00007524712646 741.9225207279669V58.07748380494672C-300.00007524712646 19.575972538221777 -279.45875111154135 -16.00492023913091 -246.1141252587082 -35.258370169992645L346.1140194940036 -377.1808886315029Z " transform="rotate(80, 400, 400)" opacity="0.90"></path><path d="M348.80831699342457 -338.32186022165627C380.48571155361606 -356.60751849072614 419.5142274112277 -356.60751849072614 451.1916219714192 -338.31674105640735L1013.8083594864954 -13.490348517972734C1045.485754046687 4.795309751097193 1065.0000119754927 38.59715788958215 1065.0000119754927 75.17359359297097V724.8263786698401C1065.0000119754927 761.4028143732289 1045.485754046687 795.2046625117139 1013.8083594864954 813.4954399460325L451.1916219714192 1138.3218324844672C419.5142274112277 1156.607490753537 380.48571155361606 1156.607490753537 348.80831699342457 1138.3167133192185L-213.80842052165167 813.4903207807838C-245.48581508184316 795.2046625117139 -265.00007301064903 761.4028143732289 -265.00007301064903 724.8263786698401V75.17359359297097C-265.00007301064903 38.59715788958215 -245.48581508184316 4.795309751097193 -213.80842052165167 -13.495467683221477L348.80831699342457 -338.32186022165627Z " transform="rotate(76, 400, 400)" opacity="0.31"></path><path d="M351.5026144928455 -299.46281655302056C381.51277776039524 -316.78607175529726 418.4871612044485 -316.78607175529726 448.49732447199824 -299.4579668175216L981.5026547494388 8.27229979783749C1011.5128180169888 25.595555000114246 1030.0000097390152 57.618358499731585 1030.0000097390152 92.26971863978406V707.7302518705023C1030.0000097390152 742.3816120105548 1011.5128180169888 774.4044155101722 981.5026547494388 791.7325204479478L448.49732447199824 1099.4627870633067C418.4871612044485 1116.7860422655835 381.51277776039524 1116.7860422655835 351.5026144928455 1099.457937327808L-181.50271578459518 791.7276707124488C-211.51287905214502 774.4044155101722 -230.0000707741716 742.3816120105548 -230.0000707741716 707.7302518705023V92.26971863978406C-230.0000707741716 57.618358499731585 -211.51287905214502 25.595555000114246 -181.50271578459518 8.26745006233864L351.5026144928455 -299.46281655302056Z " transform="rotate(72, 400, 400)" opacity="0.20"></path><path d="M354.19691199226634 -260.6037118492286C382.53984396717453 -276.9645639847122 417.4600949976692 -276.9645639847122 445.8030269725774 -260.5991315434796L949.1969500123826 30.035009148803965C977.5398819872905 46.39586128428755 995.000007502538 76.63962014503727 995.000007502538 109.36590472175362V690.6341861063206C995.000007502538 723.360470683037 977.5398819872905 753.6042295437867 949.1969500123826 769.969661985019L445.8030269725774 1060.6038026773028C417.4600949976692 1076.9646548127864 382.53984396717453 1076.9646548127864 354.19691199226634 1060.5992223715539L-149.1970110475387 769.9650816792703C-177.53994302244683 753.6042295437867 -195.00006853769418 723.360470683037 -195.00006853769418 690.6341861063206V109.36590472175362C-195.00006853769418 76.63962014503727 -177.53994302244683 46.39586128428755 -149.1970110475387 30.030428843055006L354.19691199226634 -260.6037118492286Z " transform="rotate(68, 400, 400)" opacity="0.94"></path><path d="M356.8912094916873 -221.7447292157492C383.56691017395383 -237.14317828443959 416.4330287908899 -237.14317828443959 443.1087294731565 -221.74041833975008L916.8912452753259 51.79759642945805C943.5669459575925 67.19604549814835 960.0000052660605 95.66075972003046 960.0000052660605 126.46196873341046V673.5379982718268C960.0000052660605 704.3392072852066 943.5669459575925 732.8039215070887 916.8912452753259 748.2066814517782L443.1087294731565 1021.7446962209863C416.4330287908899 1037.1431452896768 383.56691017395383 1037.1431452896768 356.8912094916873 1021.7403853449873L-116.89130631048215 748.2023705757792C-143.5670069927487 732.8039215070887 -160.00006630121675 704.3392072852066 -160.00006630121675 673.5379982718268V126.46196873341046C-160.00006630121675 95.66075972003046 -143.5670069927487 67.19604549814835 -116.89130631048215 51.793285553458986L356.8912094916873 -221.7447292157492Z " transform="rotate(64, 400, 400)" opacity="0.65"></path><path d="M359.5855069911082 -182.8856855471135C384.593976380733 -197.32173154901076 415.4059625841106 -197.32173154901076 440.41443197373553 -182.88164410086432L884.5855405382695 73.56024474526816C909.5940099278941 87.9962907471654 925.0000030295832 114.68196033017989 925.0000030295832 143.55809378022377V656.4418714724889C925.0000030295832 685.3180049225325 909.5940099278941 712.0036745055472 884.5855405382695 726.4437619536934L440.41443197373553 982.885650799826C415.4059625841106 997.3216968017232 384.593976380733 997.3216968017232 359.5855069911082 982.8816093535768L-84.58560157342566 726.4397205074442C-109.59407096305051 712.0036745055472 -125.00006406473938 685.3180049225325 -125.00006406473938 656.4418714724889V143.55809378022377C-125.00006406473938 114.68196033017989 -109.59407096305051 87.9962907471654 -84.58560157342566 73.55620329901922L359.5855069911082 -182.8856855471135Z " transform="rotate(60, 400, 400)" opacity="0.55"></path><path d="M362.27980449052916 -144.02658084332154C385.6210425875123 -157.50022377842566 414.37889637733144 -157.50022377842566 437.7201344743146 -144.02280882682237L852.2798358012128 95.32295409623475C875.6210738981961 108.79659703133882 890.0000007931058 133.7032219754857 890.0000007931058 160.6542798621931V639.3458057083076C890.0000007931058 666.2968635950149 875.6210738981961 691.2034885391618 852.2798358012128 704.6809034907651L437.7201344743146 944.0266664138221C414.37889637733144 957.5003093489261 385.6210425875123 957.5003093489261 362.27980449052916 944.022894397323L-52.279896836369176 704.6771314742659C-75.62113493335238 691.2034885391618 -90.00006182826195 666.2968635950149 -90.00006182826195 639.3458057083076V160.6542798621931C-90.00006182826195 133.7032219754857 -75.62113493335238 108.79659703133882 -52.279896836369176 95.31918207973564L362.27980449052916 -144.02658084332154Z " transform="rotate(56, 400, 400)" opacity="0.92"></path><path d="M364.97410198995 -105.16755243347495C386.6481087942916 -117.67879230178588 413.35183017055215 -117.67879230178588 435.02583697489376 -105.16404984672567L819.9741310641564 117.08558715325591C841.648137868498 129.5968270215668 854.9999985566283 152.72440732684606 854.9999985566283 177.75038965021736V622.2496636501804C854.9999985566283 647.2756459735517 841.648137868498 670.403226278831 819.9741310641564 682.917968733891L435.02583697489376 905.1676057338727C413.35183017055215 917.6788456021834 386.6481087942916 917.6788456021834 364.97410198995 905.1641031471233L-19.97419209931269 682.9144661471419C-41.64819890365419 670.403226278831 -55.00005959178452 647.2756459735517 -55.00005959178452 622.2496636501804V177.75038965021736C-55.00005959178452 152.72440732684606 -41.64819890365419 129.5968270215668 -19.97419209931269 117.08208456650675L364.97410198995 -105.16755243347495Z " transform="rotate(52, 400, 400)" opacity="0.68"></path><path d="M367.6683994893709 -66.3085697999955C387.6751750010708 -77.85740660151328 412.32476396377297 -77.85740660151328 432.3315394754728 -66.30533664299617L787.6684263271 138.8481744339099C807.6752018387997 150.39701123542773 819.9999963201508 171.74554690183925 819.9999963201508 194.8464536618742V605.1534758156864C819.9999963201508 628.2543825757215 807.6752018387997 649.602918242133 787.6684263271 661.15498820065L432.3315394754728 866.3084992775562C412.32476396377297 877.8573360790738 387.6751750010708 877.8573360790738 367.6683994893709 866.3052661205568L12.331512637743856 661.1517550436508C-7.675262873956058 649.602918242133 -20.000057355307092 628.2543825757215 -20.000057355307092 605.1534758156864V194.8464536618742C-20.000057355307092 171.74554690183925 -7.675262873956058 150.39701123542773 12.331512637743856 138.84494127691067L367.6683994893709 -66.3085697999955Z " transform="rotate(48, 400, 400)" opacity="0.37"></path><path d="M370.36269698879187 -27.44946509620354C388.7022412078501 -38.035898830928204 411.29769775699367 -38.035898830928204 429.6372419760519 -27.44650136895416L755.3627215900434 160.61088378487636C773.7022658091016 171.19731751960103 784.9999940836733 190.766808547145 784.9999940836733 211.94263974384376V588.0574100515049C784.9999940836733 609.2332412482036 773.7022658091016 628.8027322757475 755.3627215900434 639.3921297377216L429.6372419760519 827.4495148915521C411.29769775699367 838.0359486262769 388.7022412078501 838.0359486262769 370.36269698879187 827.4465511643027L44.63721737480034 639.3891660104722C26.29767315574213 628.8027322757475 14.99994488117028 609.2332412482036 14.99994488117028 588.0574100515049V211.94263974384376C14.99994488117028 190.766808547145 26.29767315574213 171.19731751960103 44.63721737480034 160.6079200576271L370.36269698879187 -27.44946509620354Z " transform="rotate(44, 400, 400)" opacity="0.65"></path><path d="M373.05705552336894 11.409578572432167C389.7293684497856 1.7855479045006462 410.2706925853706 1.7855479045006462 426.9430055117873 11.412272869931599L723.0570778881431 182.37353210068665C739.7293908145598 191.99756276861814 750.0000528823523 209.78800915729448 750.0000528823523 229.03876479065696V570.961283252167C750.0000528823523 590.2120388855295 739.7293908145598 608.0024852742059 723.0570778881431 617.6292102396368L426.9430055117873 788.5904694703918C410.2706925853706 798.2145001383233 389.7293684497856 798.2145001383233 373.05705552336894 788.5877751728924L76.94298314701308 617.6265159421373C60.270670220596514 608.0024852742059 50.00000815280396 590.2120388855295 50.00000815280396 570.961283252167V229.03876479065696C50.00000815280396 209.78800915729448 60.270670220596514 191.99756276861814 76.94298314701308 182.37083780318727L373.05705552336894 11.409578572432167Z " transform="rotate(40, 400, 400)" opacity="0.60"></path><path d="M375.75135302279 50.26859172348969C390.7564346565648 41.60696412235137 409.24362637859144 41.60696412235137 424.24870801236625 50.27101659123923L690.7513731510866 204.13614989891875C705.7564547848616 212.79777750005712 715.0000506458748 228.8091792498658 715.0000506458748 246.13485931989203V553.8651259352512C715.0000506458748 571.1908060052774 705.7564547848616 587.2022077550861 690.7513731510866 595.8662602239739L424.24870801236625 749.7313935316533C409.24362637859144 758.3930211327918 390.7564346565648 758.3930211327918 375.75135302279 749.728968663904L109.24868788406957 595.8638353562244C94.2436062502947 587.2022077550861 85.00001038928139 571.1908060052774 85.00001038928139 553.8651259352512V246.13485931989203C85.00001038928139 228.8091792498658 94.2436062502947 212.79777750005712 109.24868788406957 204.13372503116932L375.75135302279 50.26859172348969Z " transform="rotate(36, 400, 400)" opacity="0.25"></path><path d="M378.4456505222108 89.1276353921254C391.7835008633441 81.4284108577802 408.21656017181215 81.4284108577802 421.5544105129454 89.12979083012493L658.4456684140301 225.89879821472903C671.7835187551634 233.59802274907418 680.0000484093974 247.83037986001523 680.0000484093974 263.23098436670523V536.7689991359134C680.0000484093974 552.1696036426033 671.7835187551634 566.4019607535444 658.4456684140301 574.1033407258891L421.5544105129454 710.8723481104931C408.21656017181215 718.5715726448384 391.7835008633441 718.5715726448384 378.4456505222108 710.8701926724937L141.5543926211261 574.1011852878896C128.21654227999284 566.4019607535444 120.00001262575881 552.1696036426033 120.00001262575881 536.7689991359134V263.23098436670523C120.00001262575881 247.83037986001523 128.21654227999284 233.59802274907418 141.5543926211261 225.8966427767295L378.4456505222108 89.1276353921254Z " transform="rotate(32, 400, 400)" opacity="0.83"></path><path d="M381.1399327628427 127.9866790607611C392.8105518113343 121.24985759320904 407.1894787062438 121.24985759320904 418.8600977547354 127.98856506901069L626.1399484181845 247.66144653053925C637.8105674666762 254.39826799809128 645.000030914131 266.8515804701647 645.000030914131 280.32710941351843V519.6728723365757C645.000030914131 533.1484012799293 637.8105674666762 545.6017137520028 626.1399484181845 552.3404212278044L418.8600977547354 672.0133026893329C407.1894787062438 678.7501241568849 392.8105518113343 678.7501241568849 381.1399327628427 672.0114166810833L173.86008209939354 552.3385352195548C162.18946305090196 545.6017137520028 154.99999960344718 533.1484012799293 154.99999960344718 519.6728723365757V280.32710941351843C154.99999960344718 266.8515804701647 162.18946305090196 254.39826799809128 173.86008209939354 247.65956052228967L381.1399327628427 127.9866790607611Z " transform="rotate(28, 400, 400)" opacity="0.37"></path><path d="M383.8342150034745 166.8457227293968C393.83760275932445 161.0713043286379 406.16239724067555 161.0713043286379 416.1657849965255 166.84733930789645L593.834228422339 269.4240948463495C603.8376161781889 275.1985132471084 610.0000134188645 285.87278108031416 610.0000134188645 297.4232344603316V502.5767455372377C610.0000134188645 514.1271989172553 603.8376161781889 524.801466750461 593.834228422339 530.5775017297195L416.1657849965255 633.1542572681726C406.16239724067555 638.9286756689314 393.83760275932445 638.9286756689314 383.8342150034745 633.1526406896729L206.16577157766096 530.57588515122C196.16238382181103 524.801466750461 189.9999865811355 514.1271989172553 189.9999865811355 502.5767455372377V297.4232344603316C189.9999865811355 285.87278108031416 196.16238382181103 275.1985132471084 206.16577157766096 269.4224782678499L383.8342150034745 166.8457227293968Z " transform="rotate(24, 400, 400)" opacity="0.43"></path><path d="M386.5285125028954 205.7047969156106C394.86466896610375 200.89278158164484 405.13533103389625 200.89278158164484 413.4714874971046 205.70614406436033L561.5285236852825 291.1867736797378C569.8646801484908 295.9987890137036 575.0000111823871 304.8940122080418 575.0000111823871 314.519390024723V485.48064925547806C575.0000111823871 495.10602707215935 569.8646801484908 504.00125026649744 561.5285236852825 508.814612749213L413.4714874971046 594.2952423645904C405.13533103389625 599.1072576985562 394.86466896610375 599.1072576985562 386.5285125028954 594.2938952158407L238.4714763147175 508.8132656004632C230.13531985150922 504.00125026649744 224.99998881761292 495.10602707215935 224.99998881761292 485.48064925547806V314.519390024723C224.99998881761292 304.8940122080418 230.13531985150922 295.9987890137036 238.4714763147175 291.18542653098814L386.5285125028954 205.7047969156106Z " transform="rotate(20, 400, 400)" opacity="0.34"></path><path d="M389.22281000231635 244.5637948078791C395.891735172883 240.7141825407065 404.108264827117 240.7141825407065 410.77718999768365 244.56487252687887L529.222818948226 312.9493762191809C535.8917441187926 316.7989884863535 540.0000089459097 323.915167041824 540.0000089459097 331.615469295169V468.3844766797731C540.0000089459097 476.08477893311806 535.8917441187926 483.2009574885886 529.222818948226 487.05164747476095L410.77718999768365 555.4361511670629C404.108264827117 559.2857634342356 395.891735172883 559.2857634342356 389.22281000231635 555.4350734480632L270.777181051774 487.0505697557612C264.10825588120736 483.2009574885886 259.99999105409034 476.08477893311806 259.99999105409034 468.3844766797731V331.615469295169C259.99999105409034 323.915167041824 264.10825588120736 316.7989884863535 270.777181051774 312.9482985001812L389.22281000231635 244.5637948078791Z " transform="rotate(16, 400, 400)" opacity="0.98"></path><path d="M391.9171075017373 283.4228613646984C396.9188013796622 280.53565216431895 403.0811986203378 280.53565216431895 408.0828924982627 283.4236696539482L496.9171142111695 334.71204742317474C501.91880808909445 337.5992566235542 505.0000067094322 342.93639054015705 505.0000067094322 348.7116172301658V451.28837276861884C505.0000067094322 457.06359945862766 501.91880808909445 462.4007333752305 496.9171142111695 465.28875086485976L408.0828924982627 516.5771286340863C403.0811986203378 519.4643378344657 396.9188013796622 519.4643378344657 391.9171075017373 516.5763203448364L303.0828857888305 465.28794257561C298.08119191090555 462.4007333752305 294.9999932905678 457.06359945862766 294.9999932905678 451.28837276861884V348.7116172301658C294.9999932905678 342.93639054015705 298.08119191090555 337.5992566235542 303.0828857888305 334.71123913392495L391.9171075017373 283.4228613646984Z " transform="rotate(12, 400, 400)" opacity="0.59"></path><path d="M394.6114050011582 322.2819126627286C397.9458675864415 320.35710652914236 402.0541324135585 320.35710652914236 405.3885949988418 322.2824515222285L464.611409474113 356.4747033683795C467.9458720593963 358.39950950196584 470.00000447295486 361.9575987797011 470.00000447295486 365.8077499063736V434.1922535986756C470.00000447295486 438.0424047253481 467.9458720593963 441.6004940030833 464.611409474113 443.52583899616957L405.3885949988418 477.7180908423205C402.0541324135585 479.64289697590687 397.9458675864415 479.64289697590687 394.6114050011582 477.7175519828207L335.38859052588697 443.52530013666967C332.0541279406037 441.6004940030833 329.99999552704514 438.0424047253481 329.99999552704514 434.1922535986756V365.8077499063736C329.99999552704514 361.9575987797011 332.0541279406037 358.39950950196584 335.38859052588697 356.47416450887965L394.6114050011582 322.2819126627286Z " transform="rotate(8, 400, 400)" opacity="0.59"></path><path d="M397.30570250057906 361.1409487019698C398.97293379322076 360.17854563517665 401.02706620677924 360.17854563517665 402.69429749942094 361.1412181317197L432.3057047370565 378.23734405479524C433.9729360296982 379.19974712158836 435.0000022364774 380.97879176045603 435.0000022364774 382.90386732379227V417.0961191699433C435.0000022364774 419.0211947332795 433.9729360296982 420.80023937214713 432.3057047370565 421.76291186869025L402.69429749942094 438.85903779176573C401.02706620677924 439.8214408585589 398.97293379322076 439.8214408585589 397.30570250057906 438.8587683620158L367.6942952629435 421.7626424389403C366.02706397030187 420.80023937214713 364.9999977635226 419.0211947332795 364.9999977635226 417.0961191699433V382.90386732379227C364.9999977635226 380.97879176045603 366.02706397030187 379.19974712158836 367.6942952629435 378.2370746250453L397.30570250057906 361.1409487019698Z " transform="rotate(4, 400, 400)" opacity="0.45"></path></g></svg>