<svg xmlns="http://www.w3.org/2000/svg" version="1.1" xmlns:xlink="http://www.w3.org/1999/xlink" xmlns:svgjs="http://svgjs.dev/svgjs" viewBox="0 0 800 800"><g stroke-width="5" stroke="#0f674b" fill="none"><path d="M324.73252433249195 -878.3876538032209C355.5638584560065 -940.7011707787677 444.4362025791497 -940.7011707787677 475.2675367026643 -878.3876538032209L1703.6815264198972 1603.896908964417C1731.300607141371 1659.7124362149193 1690.6960445299464 1725.122733430996 1628.4140202348117 1725.122733430996H-828.4139591996557C-890.6959834947901 1725.122733430996 -931.3005461062144 1659.7124362149193 -903.6814653847416 1603.896908964417L324.73252433249195 -878.3876538032209Z " transform="rotate(84, 400, 400)" opacity="0.52"></path><path d="M328.3166912936865 -817.5120686797788C357.67986664941463 -876.8582753231568 442.3201943857416 -876.8582753231568 471.68336974146973 -817.5120686797788L1641.6014551864532 1546.5684672894C1667.905341587857 1599.726112289879 1629.2343295769765 1662.021633448047 1569.9181159625628 1662.021633448047H-769.9180549274064C-829.2342685418201 1662.021633448047 -867.9052805527003 1599.726112289879 -841.6013941512979 1546.5684672894L328.3166912936865 -817.5120686797788Z " transform="rotate(80, 400, 400)" opacity="0.55"></path><path d="M331.9008887724592 -756.6364835563369C359.79590536040087 -813.0153798675458 440.20421670991163 -813.0153798675458 468.0992332978533 -756.6364835563369L1579.5214144705878 1489.2400256143833C1604.5101065519216 1539.7397883648378 1567.7726451415847 1598.9205334650974 1511.4222422078915 1598.9205334650974H-711.422120137579C-767.7725230712722 1598.9205334650974 -804.5099844816084 1539.7397883648378 -779.521292400276 1489.2400256143833L331.9008887724592 -756.6364835563369Z " transform="rotate(76, 400, 400)" opacity="0.97"></path><path d="M335.4850557336538 -695.7607763625823C361.9119135538092 -749.1723623416224 438.0882085165033 -749.1723623416224 464.5150663366587 -695.7607763625823L1517.4413432371439 1431.9117060096787C1541.1148409984075 1479.7535865101095 1506.3109301886147 1535.8195555524608 1452.926337935642 1535.8195555524608H-652.9262158653298C-706.3108081183022 1535.8195555524608 -741.1147189280944 1479.7535865101095 -717.4412211668322 1431.9117060096787L335.4850557336538 -695.7607763625823Z " transform="rotate(72, 400, 400)" opacity="0.90"></path><path d="M339.0691006245361 -634.8851759803512C364.0277996769048 -685.3294516272224 435.9720782527827 -685.3294516272224 460.93077730515165 -634.8851759803512L1455.3611499333879 1374.5832795934512C1477.719453374581 1419.7672778438578 1444.8490931653323 1472.7184708283007 1394.4303115930807 1472.7184708283007H-594.4304336633932C-644.8492152356448 1472.7184708283007 -677.719575444893 1419.7672778438578 -655.3612720037008 1374.5832795934512L339.0691006245361 -634.8851759803512Z " transform="rotate(68, 400, 400)" opacity="0.41"></path><path d="M342.65326758573065 -574.00957559812C366.14380787031314 -621.4865409128223 433.8560700593746 -621.4865409128223 457.3466103439571 -574.00957559812L1393.2810786999444 1317.2548531772231C1414.3241878210674 1359.7809691776056 1383.3873782123624 1409.6173861041407 1335.9344073208313 1409.6173861041407H-535.9345293911439C-583.3875002826749 1409.6173861041407 -614.324309891379 1359.7809691776056 -593.2812007702571 1317.2548531772231L342.65326758573065 -574.00957559812Z " transform="rotate(64, 400, 400)" opacity="0.75"></path><path d="M346.2374345469252 -513.133990474678C368.25981606372125 -557.6436454572114 431.74006186596625 -557.6436454572114 453.7624433827623 -513.133990474678L1331.2010074665004 1259.9264115022063C1350.9289222675534 1299.7946452525648 1321.9256632593924 1346.5162861211911 1277.4385030485819 1346.5162861211911H-477.43862511889466C-521.9257853297049 1346.5162861211911 -550.9290443378652 1299.7946452525648 -531.2011295368133 1259.9264115022063L346.2374345469252 -513.133990474678Z " transform="rotate(60, 400, 400)" opacity="0.51"></path><path d="M349.8217235784323 -452.25840535123587C370.37594632744185 -493.80075000160036 429.62417574287065 -493.80075000160036 450.1783984918802 -452.25840535123587L1269.1210583033692 1202.5979698271892C1287.5337787843516 1239.8083213275243 1260.464070376735 1283.415186138242 1218.9427208466454 1283.415186138242H-418.94259877633294C-460.46394830642254 1283.415186138242 -487.5336567140387 1239.8083213275243 -469.12093623305697 1202.5979698271892L349.8217235784323 -452.25840535123587Z " transform="rotate(56, 400, 400)" opacity="0.97"></path><path d="M353.40589053962685 -391.3828202277938C372.49195452084996 -429.95785454598945 427.50816754946254 -429.95785454598945 446.59423153068565 -391.3828202277938L1207.0409870699252 1145.2695281521726C1224.1385132308376 1179.8219974024835 1199.002355423765 1220.314086155293 1160.446816574396 1220.314086155293H-360.44669450408367C-399.00223335345265 1220.314086155293 -424.1383911605248 1179.8219974024835 -407.0408649996132 1145.2695281521726L353.40589053962685 -391.3828202277938Z " transform="rotate(52, 400, 400)" opacity="0.61"></path><path d="M356.9900575008213 -330.50721984556264C374.6079627142582 -366.11494383158936 425.39215935605444 -366.11494383158936 443.0100645694911 -330.50721984556264L1144.9609158364815 1087.9411017359448C1160.7432476773236 1119.835688736232 1137.5406404707953 1157.2130014311329 1101.950912302147 1157.2130014311329H-301.95079023183445C-337.5405184004827 1157.2130014311329 -360.7431256070109 1119.835688736232 -344.96079376616933 1087.9411017359448L356.9900575008213 -330.50721984556264Z " transform="rotate(48, 400, 400)" opacity="0.10"></path><path d="M360.57419394443775 -269.63161946333156C376.7239403900883 -302.2720331171894 423.276120645068 -302.2720331171894 439.4258670907185 -269.63161946333156L1082.8808140854596 1030.6126753197168C1097.3479516062316 1059.84938006998 1076.0788950002473 1094.1119167069726 1043.4549775123196 1094.1119167069726H-243.45491647716335C-276.07883396509095 1094.1119167069726 -297.3478905710751 1059.84938006998 -282.88075305030367 1030.6126753197168L360.57419394443775 -269.63161946333156Z " transform="rotate(44, 400, 400)" opacity="0.72"></path><path d="M364.1583609056323 -208.75603433988948C378.8399485834964 -238.4291376615784 421.16011245165987 -238.4291376615784 435.84170012952393 -208.75603433988948L1020.8007428520157 973.2842336447C1033.9526860527176 999.8630561449395 1014.6171800472773 1031.0108167240235 984.9590732400704 1031.0108167240235H-184.95901220491413C-214.617119012121 1031.0108167240235 -233.95262501756116 999.8630561449395 -220.80068181685988 973.2842336447L364.1583609056323 -208.75603433988948Z " transform="rotate(40, 400, 400)" opacity="0.32"></path><path d="M367.7425278668269 -147.8804492164474C380.9559567769046 -174.58624220596744 419.04410425825165 -174.58624220596744 432.25753316832936 -147.8804492164474L958.7206716185719 915.9557919696831C970.5574204992038 939.8767322198985 953.1554650943074 967.9097167410741 926.463168967821 967.9097167410741H-126.46310793266491C-153.15540405915112 967.9097167410741 -170.55735946404718 939.8767322198985 -158.7206105834161 915.9557919696831L367.7425278668269 -147.8804492164474Z " transform="rotate(36, 400, 400)" opacity="0.13"></path><path d="M371.3266337928653 -87.00481831663814C383.07190393515657 -110.74330097398928 416.9280350296873 -110.74330097398928 428.67330517197854 -87.00481831663814L896.6405393499722 858.6273960710334C907.1620939105337 879.8904540712247 891.6936891061812 904.8086625344922 867.9672036604156 904.8086625344922H-67.96726469557194C-91.69375014133743 904.8086625344922 -107.16215494568951 879.8904540712247 -96.64060038512855 858.6273960710334L371.3266337928653 -87.00481831663814Z " transform="rotate(32, 400, 400)" opacity="0.16"></path><path d="M374.9108007540599 -26.129172158039808C385.1879121285647 -46.90034448322206 414.8120268362791 -46.90034448322206 425.08913821078386 -26.129172158039808L834.5604681165282 801.2990154311728C843.7668283570197 819.9041911813401 830.2319741532112 841.7076235866991 809.4712993881665 841.7076235866991H-9.471360423322722C-30.232035188367547 841.7076235866991 -43.766889392175585 819.9041911813401 -34.560529151684705 801.2990154311728L374.9108007540599 -26.129172158039808Z " transform="rotate(28, 400, 400)" opacity="0.51"></path><path d="M378.49496771525446 34.74639770661321C387.3039203219728 16.942535713599824 412.69601864287097 16.942535713599824 421.5049712495893 34.74639770661321L772.4803968830845 743.9705584973669C780.3715628035056 759.9178519975105 768.7702592002414 778.606508344961 750.9753951159172 778.606508344961H49.0245438489265C31.229679764602395 778.606508344961 19.628376161338338 759.9178519975105 27.519542081759084 743.9705584973669L378.49496771525446 34.74639770661321Z " transform="rotate(24, 400, 400)" opacity="0.56"></path><path d="M382.0791957116053 95.62198283005526C389.41998955053725 80.7854311692108 410.580071484619 80.7854311692108 417.92086532355097 95.62198283005526L710.4003866847969 686.64211682235C716.9763582851479 699.9315280724697 707.3086052824277 715.5054083620117 692.4795518788243 715.5054083620117H107.52050915633197C92.69145575272853 715.5054083620117 83.02370275000851 699.9315280724697 89.59967435035912 686.64211682235L382.0791957116053 95.62198283005526Z " transform="rotate(20, 400, 400)" opacity="0.98"></path><path d="M385.66331689643266 156.4975832122864C391.5359519675783 144.62834188361083 408.4640175148436 144.62834188361083 414.3366525859892 156.4975832122864L648.3202696749861 629.3136904061222C653.5810469552669 639.9452194062178 645.8468445530906 652.4043236378516 633.9836018302078 652.4043236378516H166.01636765221406C154.15312492933128 652.4043236378516 146.41892252715525 639.9452194062178 151.67969980743572 629.3136904061222L385.66331689643266 156.4975832122864Z " transform="rotate(16, 400, 400)" opacity="0.22"></path><path d="M389.24748385762723 217.3731988533066C393.6519601609864 208.47126785679993 406.3480093214355 208.47126785679993 410.75248562479464 217.3731988533066L586.2401984415422 571.9852792486835C590.1857814017528 579.9589259987553 584.3851296001208 589.3032541724805 575.4876975579587 589.3032541724805H224.51227192446328C215.61483988230117 589.3032541724805 209.81418808066917 579.9589259987553 213.7597710408795 571.9852792486835L389.24748385762723 217.3731988533066Z " transform="rotate(12, 400, 400)" opacity="0.31"></path><path d="M392.83166607761086 278.2487916061432C395.7679836131837 272.3141709418054 404.2320163868163 272.3141709418054 407.16833392238914 278.2487916061432L524.1601424668876 514.656845203061C526.790531107028 519.9726097031089 522.9234299059399 526.2021618189258 516.9918085444984 526.2021618189258H283.00819145550156C277.0765700940602 526.2021618189258 273.20946889297215 519.9726097031089 275.8398575331124 514.656845203061L392.83166607761086 278.2487916061432Z " transform="rotate(8, 400, 400)" opacity="0.85"></path><path d="M396.41583303880543 339.12439961776886C397.88399180659184 336.15708928559997 402.11600819340816 336.15708928559997 403.58416696119457 339.12439961776886L462.0800712334438 457.3284264162278C463.395265553514 459.9863086662517 461.46171495296994 463.10108472416016 458.4959042722492 463.10108472416016H341.5040957277508C338.53828504703006 463.10108472416016 336.6047344464861 459.9863086662517 337.9199287665562 457.3284264162278L396.41583303880543 339.12439961776886Z " transform="rotate(4, 400, 400)" opacity="0.11"></path></g></svg>